<svg width="654" height="1242" viewBox="0 0 654 1242" fill="none" xmlns="http://www.w3.org/2000/svg">
<g clip-path="url(#clip0_2418_3210)">
<path d="M364.47 47.53C364.48 45.91 365.44 44.45 366.93 43.8L387.91 34.56C392.95 32.34 396.94 28.34 399.15 23.3L408.27 2.47001C408.92 0.98001 410.38 0.0200098 412 0.0100098C413.64 0.0100098 415.1 0.93001 415.78 2.41001L426.13 24.94C428.32 29.71 432.15 33.53 436.92 35.72L459.34 45.98C460.82 46.66 461.76 48.13 461.74 49.76C461.73 51.38 460.76 52.85 459.28 53.5L438.45 62.62C433.41 64.83 429.41 68.82 427.19 73.86L417.95 94.84C417.3 96.32 415.83 97.28 414.21 97.3H414.18C412.57 97.3 411.11 96.36 410.44 94.9L400.18 72.48C398 67.71 394.17 63.88 389.4 61.69L366.87 51.34C365.4 50.66 364.46 49.19 364.47 47.57V47.53ZM378.62 47.64L392.84 54.17C399.4 57.18 404.66 62.45 407.67 69.02L414.12 83.11L419.67 70.52C422.72 63.59 428.22 58.1 435.16 55.06L447.57 49.63L433.51 43.2C426.95 40.2 421.67 34.93 418.66 28.37L412.14 14.18L406.7 26.61C403.66 33.55 398.17 39.05 391.24 42.1L378.63 47.65L378.62 47.64ZM518.8 731.54C519.53 731.87 519.99 732.6 519.98 733.4C519.98 734.2 519.5 734.92 518.77 735.24L508.53 739.73C506.05 740.82 504.08 742.78 502.99 745.26L498.45 755.58C498.13 756.31 497.41 756.78 496.61 756.79H496.6C495.81 756.79 495.09 756.33 494.76 755.61L489.72 744.58C488.65 742.23 486.76 740.35 484.42 739.27L473.34 734.18C472.62 733.85 472.15 733.12 472.16 732.33C472.16 731.53 472.64 730.81 473.37 730.49L483.69 725.95C486.17 724.86 488.13 722.89 489.22 720.41L493.71 710.17C494.03 709.44 494.75 708.97 495.55 708.96H495.57C496.36 708.96 497.08 709.42 497.41 710.14L502.5 721.22C503.58 723.56 505.46 725.45 507.81 726.52L518.84 731.56L518.8 731.54ZM509.24 733.23L503.86 730.77C501.35 729.62 499.33 727.61 498.18 725.1L495.69 719.67L493.61 724.42C492.45 727.07 490.35 729.18 487.7 730.34L482.88 732.46L488.32 734.96C490.83 736.11 492.84 738.13 493.99 740.64L496.45 746.03L498.57 741.21C499.74 738.56 501.84 736.46 504.49 735.3L509.24 733.22V733.23ZM96.93 818.93C97.66 819.26 98.12 819.99 98.11 820.79C98.11 821.59 97.63 822.31 96.9 822.63L86.66 827.12C84.18 828.21 82.21 830.17 81.12 832.65L76.58 842.97C76.26 843.7 75.54 844.17 74.74 844.18H74.73C73.94 844.18 73.22 843.72 72.89 843L67.85 831.97C66.78 829.62 64.89 827.74 62.55 826.66L51.47 821.57C50.75 821.24 50.28 820.51 50.29 819.72C50.29 818.92 50.77 818.2 51.5 817.88L61.82 813.34C64.3 812.25 66.26 810.28 67.35 807.8L71.84 797.56C72.16 796.83 72.88 796.36 73.68 796.35H73.7C74.49 796.35 75.21 796.81 75.54 797.53L80.63 808.61C81.71 810.95 83.59 812.84 85.94 813.91L96.97 818.95L96.93 818.93ZM87.37 820.62L81.99 818.16C79.48 817.01 77.46 815 76.31 812.49L73.82 807.06L71.74 811.81C70.58 814.46 68.48 816.57 65.83 817.73L61.01 819.85L66.45 822.35C68.96 823.5 70.97 825.52 72.12 828.03L74.58 833.42L76.7 828.6C77.87 825.95 79.97 823.85 82.62 822.69L87.37 820.61V820.62ZM59.85 1215.66C60.58 1215.99 61.04 1216.72 61.03 1217.52C61.03 1218.32 60.55 1219.04 59.82 1219.36L49.58 1223.85C47.1 1224.94 45.13 1226.9 44.04 1229.38L39.5 1239.7C39.18 1240.43 38.46 1240.9 37.66 1240.91H37.65C36.86 1240.91 36.14 1240.45 35.81 1239.73L30.77 1228.7C29.7 1226.35 27.81 1224.47 25.47 1223.39L14.39 1218.3C13.67 1217.97 13.2 1217.24 13.21 1216.45C13.21 1215.65 13.69 1214.93 14.42 1214.61L24.74 1210.07C27.22 1208.98 29.18 1207.01 30.27 1204.53L34.76 1194.29C35.08 1193.56 35.8 1193.09 36.6 1193.08H36.62C37.41 1193.08 38.13 1193.54 38.46 1194.26L43.55 1205.34C44.63 1207.68 46.51 1209.57 48.86 1210.64L59.89 1215.68L59.85 1215.66ZM50.29 1217.35L44.91 1214.89C42.4 1213.74 40.38 1211.73 39.23 1209.22L36.74 1203.79L34.66 1208.54C33.5 1211.19 31.4 1213.3 28.75 1214.46L23.93 1216.58L29.37 1219.08C31.88 1220.23 33.89 1222.25 35.04 1224.76L37.5 1230.15L39.62 1225.33C40.79 1222.68 42.89 1220.58 45.54 1219.42L50.29 1217.34V1217.35ZM126.43 317.88C127.16 318.21 127.62 318.94 127.61 319.74C127.61 320.54 127.13 321.26 126.4 321.58L116.16 326.07C113.68 327.16 111.71 329.12 110.62 331.6L106.08 341.92C105.76 342.65 105.04 343.12 104.24 343.13H104.23C103.44 343.13 102.72 342.67 102.39 341.95L97.35 330.92C96.28 328.57 94.39 326.69 92.05 325.61L80.97 320.52C80.25 320.19 79.78 319.46 79.79 318.67C79.79 317.87 80.27 317.15 81 316.83L91.32 312.29C93.8 311.2 95.76 309.23 96.85 306.75L101.34 296.51C101.66 295.78 102.38 295.31 103.18 295.3H103.2C103.99 295.3 104.71 295.76 105.04 296.48L110.13 307.56C111.21 309.9 113.09 311.79 115.44 312.86L126.47 317.9L126.43 317.88ZM116.87 319.57L111.49 317.11C108.98 315.96 106.96 313.95 105.81 311.44L103.32 306.01L101.24 310.76C100.08 313.41 97.98 315.52 95.33 316.68L90.51 318.8L95.95 321.3C98.46 322.45 100.47 324.47 101.62 326.98L104.08 332.37L106.2 327.55C107.37 324.9 109.47 322.8 112.12 321.64L116.87 319.56V319.57ZM608.78 500.49C609.51 500.82 609.97 501.55 609.96 502.35C609.96 503.15 609.48 503.87 608.75 504.19L598.51 508.68C596.03 509.77 594.06 511.73 592.97 514.21L588.43 524.53C588.11 525.26 587.39 525.73 586.59 525.74H586.58C585.79 525.74 585.07 525.28 584.74 524.56L579.7 513.53C578.63 511.18 576.74 509.3 574.4 508.22L563.32 503.13C562.6 502.8 562.13 502.07 562.14 501.28C562.14 500.48 562.62 499.76 563.35 499.44L573.67 494.9C576.15 493.81 578.11 491.84 579.2 489.36L583.69 479.12C584.01 478.39 584.73 477.92 585.53 477.91H585.55C586.34 477.91 587.06 478.37 587.39 479.09L592.48 490.17C593.56 492.51 595.44 494.4 597.79 495.47L608.82 500.51L608.78 500.49ZM599.22 502.18L593.84 499.72C591.33 498.57 589.31 496.56 588.16 494.05L585.67 488.62L583.59 493.37C582.43 496.02 580.33 498.13 577.68 499.29L572.86 501.41L578.3 503.91C580.81 505.06 582.82 507.08 583.97 509.59L586.43 514.98L588.55 510.16C589.72 507.51 591.82 505.41 594.47 504.25L599.22 502.17V502.18ZM290.3 154.33C291.03 154.66 291.49 155.39 291.48 156.19C291.48 156.99 291 157.71 290.27 158.03L280.03 162.52C277.55 163.61 275.58 165.57 274.49 168.05L269.95 178.37C269.63 179.1 268.91 179.57 268.11 179.58H268.1C267.31 179.58 266.59 179.12 266.26 178.4L261.22 167.37C260.15 165.02 258.26 163.14 255.92 162.06L244.84 156.97C244.12 156.64 243.65 155.91 243.66 155.12C243.66 154.32 244.14 153.6 244.87 153.28L255.19 148.74C257.67 147.65 259.63 145.68 260.72 143.2L265.21 132.96C265.53 132.23 266.25 131.76 267.05 131.75H267.07C267.86 131.75 268.58 132.21 268.91 132.93L274 144.01C275.08 146.35 276.96 148.24 279.31 149.31L290.34 154.35L290.3 154.33ZM280.74 156.02L275.36 153.56C272.85 152.41 270.83 150.4 269.68 147.89L267.19 142.46L265.11 147.21C263.95 149.86 261.85 151.97 259.2 153.13L254.38 155.25L259.82 157.75C262.33 158.9 264.34 160.92 265.49 163.43L267.95 168.82L270.07 164C271.24 161.35 273.34 159.25 275.99 158.09L280.74 156.01V156.02ZM652.3 32.24C653.03 32.57 653.49 33.3 653.48 34.1C653.48 34.9 653 35.62 652.27 35.94L642.03 40.43C639.55 41.52 637.58 43.48 636.49 45.96L631.95 56.28C631.63 57.01 630.91 57.48 630.11 57.49H630.1C629.31 57.49 628.59 57.03 628.26 56.31L623.22 45.28C622.15 42.93 620.26 41.05 617.92 39.97L606.84 34.88C606.12 34.55 605.65 33.82 605.66 33.03C605.66 32.23 606.14 31.51 606.87 31.19L617.19 26.65C619.67 25.56 621.63 23.59 622.72 21.11L627.21 10.87C627.53 10.14 628.25 9.67001 629.05 9.66001H629.07C629.86 9.66001 630.58 10.12 630.91 10.84L636 21.92C637.08 24.26 638.96 26.15 641.31 27.22L652.34 32.26L652.3 32.24ZM642.74 33.93L637.36 31.47C634.85 30.32 632.83 28.31 631.68 25.8L629.19 20.37L627.11 25.12C625.95 27.77 623.85 29.88 621.2 31.04L616.38 33.16L621.82 35.66C624.33 36.81 626.34 38.83 627.49 41.34L629.95 46.73L632.07 41.91C633.24 39.26 635.34 37.16 637.99 36L642.74 33.92V33.93ZM131.97 129.05C133.45 129.73 134.39 131.2 134.37 132.83C134.36 134.45 133.39 135.92 131.91 136.57L111.08 145.69C106.04 147.9 102.04 151.89 99.82 156.93L90.58 177.91C89.93 179.39 88.46 180.35 86.84 180.37H86.81C85.2 180.37 83.74 179.43 83.07 177.97L72.81 155.55C70.63 150.78 66.8 146.95 62.03 144.76L39.5 134.41C38.03 133.73 37.09 132.26 37.1 130.64C37.11 129.02 38.07 127.56 39.56 126.91L60.54 117.67C65.58 115.45 69.57 111.45 71.78 106.41L80.9 85.58C81.55 84.09 83.01 83.13 84.63 83.12H84.67C86.28 83.12 87.74 84.06 88.41 85.52L98.76 108.05C100.95 112.82 104.78 116.64 109.55 118.83L131.97 129.09V129.05ZM120.19 132.71L106.13 126.28C99.57 123.28 94.29 118.01 91.28 111.45L84.76 97.26L79.32 109.69C76.28 116.63 70.79 122.13 63.86 125.18L51.25 130.73L65.46 137.26C72.02 140.27 77.28 145.54 80.29 152.11L86.74 166.2L92.29 153.61C95.34 146.68 100.84 141.19 107.78 138.15L120.19 132.72V132.71ZM617.25 926.88C617.24 928.5 616.27 929.97 614.79 930.62L593.96 939.74C588.92 941.95 584.92 945.94 582.7 950.98L573.46 971.96C572.81 973.44 571.34 974.4 569.72 974.42H569.69C568.08 974.42 566.62 973.48 565.95 972.02L555.69 949.6C553.51 944.83 549.68 941 544.91 938.81L522.38 928.46C520.91 927.78 519.97 926.31 519.98 924.69C519.99 923.07 520.95 921.61 522.44 920.96L543.42 911.72C548.46 909.5 552.45 905.5 554.66 900.46L563.78 879.63C564.43 878.14 565.89 877.18 567.51 877.17H567.55C569.16 877.17 570.62 878.11 571.29 879.57L581.64 902.1C583.83 906.87 587.66 910.69 592.43 912.88L614.85 923.14C616.33 923.81 617.27 925.29 617.25 926.92V926.88ZM603.06 926.76L589 920.33C582.44 917.33 577.16 912.06 574.15 905.5L567.63 891.31L562.19 903.74C559.15 910.68 553.66 916.18 546.73 919.23L534.12 924.78L548.33 931.31C554.89 934.32 560.15 939.6 563.16 946.16L569.61 960.25L575.16 947.66C578.21 940.73 583.71 935.24 590.65 932.2L603.06 926.77V926.76ZM429.14 537.36C429.13 538.98 428.16 540.45 426.68 541.1L405.85 550.22C400.81 552.43 396.81 556.42 394.59 561.46L385.35 582.44C384.7 583.92 383.23 584.88 381.61 584.9H381.58C379.97 584.9 378.51 583.96 377.84 582.5L367.58 560.08C365.4 555.31 361.57 551.48 356.8 549.29L334.27 538.94C332.8 538.26 331.86 536.79 331.87 535.17C331.88 533.55 332.84 532.09 334.33 531.44L355.31 522.2C360.35 519.98 364.34 515.98 366.55 510.94L375.67 490.11C376.32 488.62 377.78 487.66 379.4 487.65H379.44C381.05 487.65 382.51 488.59 383.18 490.05L393.53 512.58C395.72 517.35 399.55 521.17 404.32 523.36L426.74 533.62C428.22 534.29 429.16 535.77 429.14 537.4V537.36ZM414.95 537.24L400.89 530.81C394.33 527.81 389.05 522.54 386.04 515.98L379.52 501.79L374.08 514.22C371.04 521.16 365.55 526.66 358.62 529.71L346.01 535.26L360.22 541.79C366.78 544.8 372.04 550.08 375.05 556.64L381.5 570.73L387.05 558.14C390.1 551.21 395.6 545.72 402.54 542.68L414.95 537.25V537.24ZM461.74 1194.15C461.73 1195.77 460.76 1197.24 459.28 1197.89L438.45 1207.01C433.41 1209.22 429.41 1213.21 427.19 1218.25L417.95 1239.23C417.3 1240.71 415.83 1241.67 414.21 1241.69H414.18C412.57 1241.69 411.11 1240.75 410.44 1239.29L400.18 1216.87C398 1212.1 394.17 1208.27 389.4 1206.08L366.87 1195.73C365.4 1195.05 364.46 1193.58 364.47 1191.96C364.48 1190.34 365.44 1188.88 366.93 1188.23L387.91 1178.99C392.95 1176.77 396.94 1172.77 399.15 1167.73L408.27 1146.9C408.92 1145.41 410.38 1144.45 412 1144.44H412.04C413.65 1144.44 415.11 1145.38 415.78 1146.84L426.13 1169.37C428.32 1174.14 432.15 1177.96 436.92 1180.15L459.34 1190.41C460.82 1191.08 461.76 1192.56 461.74 1194.19V1194.15ZM447.55 1194.03L433.49 1187.6C426.93 1184.6 421.65 1179.33 418.64 1172.77L412.12 1158.58L406.68 1171.01C403.64 1177.95 398.15 1183.45 391.22 1186.5L378.61 1192.05L392.82 1198.58C399.38 1201.59 404.64 1206.87 407.65 1213.43L414.1 1227.52L419.65 1214.93C422.7 1208 428.2 1202.51 435.14 1199.47L447.55 1194.04V1194.03ZM359.39 793.63C359.16 795.24 358 796.55 356.44 797L334.57 803.21C329.27 804.71 324.77 808.12 321.89 812.81L309.89 832.34C309.04 833.72 307.46 834.47 305.85 834.27H305.82C304.23 834.05 302.9 832.92 302.44 831.38L295.32 807.77C293.81 802.75 290.53 798.43 286.11 795.61L265.2 782.3C263.83 781.43 263.1 779.84 263.34 778.24C263.57 776.64 264.72 775.32 266.28 774.87L288.32 768.56C293.61 767.05 298.11 763.63 300.98 758.93L312.84 739.53C313.69 738.15 315.26 737.39 316.87 737.6H316.91C318.5 737.82 319.82 738.95 320.29 740.49L327.48 764.21C329 769.23 332.28 773.54 336.71 776.35L357.53 789.56C358.9 790.43 359.63 792.02 359.4 793.63H359.39ZM345.35 791.59L332.29 783.31C326.2 779.44 321.69 773.51 319.59 766.61L315.06 751.67L307.98 763.24C304.03 769.7 297.84 774.4 290.56 776.49L277.32 780.28L290.52 788.68C296.61 792.55 301.11 798.49 303.19 805.4L307.66 820.23L314.86 808.51C318.82 802.06 325.02 797.37 332.31 795.3L345.34 791.6L345.35 791.59ZM170.93 650.34C170 651.67 168.37 652.32 166.78 652.02L144.45 647.7C139.05 646.66 133.49 647.67 128.8 650.56L109.28 662.59C107.9 663.44 106.15 663.4 104.81 662.49L104.79 662.47C103.47 661.56 102.79 659.95 103.07 658.37L107.35 634.09C108.26 628.92 107.29 623.6 104.6 619.09L91.93 597.78C91.1 596.39 91.17 594.64 92.1 593.31C93.03 591.98 94.65 591.33 96.24 591.63L118.76 595.93C124.17 596.96 129.72 595.93 134.4 593.04L153.73 581.07C155.11 580.22 156.86 580.25 158.2 581.16L158.23 581.18C159.55 582.09 160.22 583.69 159.95 585.28L155.68 609.7C154.78 614.87 155.76 620.19 158.45 624.7L171.09 645.87C171.92 647.26 171.86 649.01 170.93 650.34ZM159.32 642.19L151.4 628.91C147.7 622.71 146.35 615.38 147.59 608.28L150.28 592.9L138.75 600.04C132.31 604.03 124.67 605.44 117.23 604.02L103.7 601.44L111.7 614.88C115.39 621.08 116.73 628.41 115.48 635.52L112.79 650.78L124.5 643.56C130.95 639.59 138.59 638.19 146.03 639.63L159.33 642.2L159.32 642.19ZM208.44 719.38C208.44 722.79 205.67 725.56 202.26 725.56C198.85 725.56 196.08 722.79 196.08 719.38C196.08 715.97 198.85 713.2 202.26 713.2C205.67 713.2 208.44 715.97 208.44 719.38ZM428.24 877.12C428.24 880.53 425.47 883.3 422.06 883.3C418.65 883.3 415.88 880.53 415.88 877.12C415.88 873.71 418.65 870.94 422.06 870.94C425.47 870.94 428.24 873.71 428.24 877.12ZM609.24 679.69C609.24 683.1 606.47 685.87 603.06 685.87C599.65 685.87 596.88 683.1 596.88 679.69C596.88 676.28 599.65 673.51 603.06 673.51C606.47 673.51 609.24 676.28 609.24 679.69ZM215.58 486.29C216.31 486.62 216.77 487.35 216.76 488.15C216.76 488.95 216.28 489.67 215.55 489.99L205.31 494.48C202.83 495.57 200.86 497.53 199.77 500.01L195.23 510.33C194.91 511.06 194.19 511.53 193.39 511.54H193.38C192.59 511.54 191.87 511.08 191.54 510.36L186.5 499.33C185.43 496.98 183.54 495.1 181.2 494.02L170.12 488.93C169.4 488.6 168.93 487.87 168.94 487.08C168.94 486.28 169.42 485.56 170.15 485.24L180.47 480.7C182.95 479.61 184.91 477.64 186 475.16L190.49 464.92C190.81 464.19 191.53 463.72 192.33 463.71H192.35C193.14 463.71 193.86 464.17 194.19 464.89L199.28 475.97C200.36 478.31 202.24 480.2 204.59 481.27L215.62 486.31L215.58 486.29ZM206.02 487.98L200.64 485.52C198.13 484.37 196.11 482.36 194.96 479.85L192.47 474.42L190.39 479.17C189.23 481.82 187.13 483.93 184.48 485.09L179.66 487.21L185.1 489.71C187.61 490.86 189.62 492.88 190.77 495.39L193.23 500.78L195.35 495.96C196.52 493.31 198.62 491.21 201.27 490.05L206.02 487.97V487.98ZM231.52 392.07C231.52 395.48 228.75 398.25 225.34 398.25C221.93 398.25 219.16 395.48 219.16 392.07C219.16 388.66 221.93 385.89 225.34 385.89C228.75 385.89 231.52 388.66 231.52 392.07ZM228.74 27.35C228.74 30.76 225.97 33.53 222.56 33.53C219.15 33.53 216.38 30.76 216.38 27.35C216.38 23.94 219.15 21.17 222.56 21.17C225.97 21.17 228.74 23.94 228.74 27.35ZM520.65 1075.53C520.65 1078.94 517.88 1081.71 514.47 1081.71C511.06 1081.71 508.29 1078.94 508.29 1075.53C508.29 1072.12 511.06 1069.35 514.47 1069.35C517.88 1069.35 520.65 1072.12 520.65 1075.53ZM12.36 1093.47C12.36 1096.88 9.59 1099.65 6.18 1099.65C2.77 1099.65 0 1096.88 0 1093.47C0 1090.06 2.77 1087.29 6.18 1087.29C9.59 1087.29 12.36 1090.06 12.36 1093.47ZM636.89 309.61L563.63 282.43L632.55 245.59C634.35 244.63 635.23 242.55 634.66 240.59C634.09 238.63 632.25 237.34 630.21 237.48L552.28 243.02L599.78 180.99C601.02 179.37 600.96 177.11 599.63 175.57C598.31 174.02 596.08 173.61 594.29 174.58L525.61 211.86L543.22 135.73C543.68 133.75 542.69 131.71 540.84 130.85C539 129.99 536.8 130.53 535.57 132.16L488.45 194.5L473 117.91C472.6 115.91 470.85 114.47 468.82 114.45H468.77C466.76 114.45 465.01 115.85 464.56 117.82L447.44 194.07L401.69 130.72C400.5 129.07 398.31 128.48 396.45 129.3C394.59 130.12 393.55 132.13 393.97 134.13L409.93 210.63L342.08 171.87C340.31 170.86 338.08 171.22 336.72 172.74C335.36 174.26 335.25 176.52 336.46 178.16L382.61 241.2L304.81 233.98C302.78 233.79 300.9 235.05 300.29 236.99C299.68 238.93 300.52 241.04 302.29 242.03L370.37 280.35L296.56 305.95C294.64 306.62 293.44 308.54 293.69 310.56C293.94 312.58 295.57 314.15 297.6 314.32L375.47 321.05L318.82 374.88C317.34 376.28 317.05 378.53 318.11 380.26C318.91 381.57 320.32 382.32 321.79 382.32C322.27 382.32 322.76 382.24 323.23 382.07L396.9 356L367.59 428.45C366.83 430.34 367.49 432.5 369.17 433.64C369.9 434.14 370.75 434.38 371.58 434.38C372.67 434.38 373.75 433.97 374.57 433.17L430.86 378.97L434.14 457.04C434.23 459.07 435.72 460.77 437.73 461.11C437.97 461.15 438.21 461.17 438.45 461.17C440.19 461.17 441.8 460.11 442.46 458.45L465.71 399.91L487.67 458.94C488.31 460.65 489.93 461.75 491.71 461.75C491.92 461.75 492.13 461.74 492.34 461.7C494.35 461.4 495.89 459.74 496.02 457.71L501 379.72L556.1 435.14C556.93 435.98 558.04 436.41 559.16 436.41C559.97 436.41 560.78 436.18 561.5 435.72C563.21 434.62 563.92 432.47 563.2 430.56L535.47 357.49L608.56 385.16C609.06 385.35 609.58 385.44 610.09 385.44C611.52 385.44 612.91 384.72 613.72 383.46C614.82 381.75 614.58 379.5 613.13 378.06L557.68 323.02L635.66 317.98C637.69 317.85 639.35 316.31 639.65 314.3C639.95 312.29 638.79 310.34 636.88 309.63L636.89 309.61ZM531.6 344.53C528.96 347.67 526.03 350.65 522.87 353.41C522.06 354.12 521.24 354.82 520.41 355.5C514.58 360.26 508.18 364.21 501.34 367.27C498.54 368.53 495.7 369.63 492.88 370.54C484.68 373.22 476.1 374.63 467.39 374.74C467.35 374.74 467.3 374.74 467.26 374.74C466.94 374.75 466.59 374.74 466.27 374.75C465.71 374.75 465.15 374.75 464.6 374.72C464.55 374.72 464.51 374.72 464.46 374.72C454.97 374.54 445.66 372.8 436.79 369.54C436.71 369.51 436.64 369.49 436.56 369.46C435.56 369.1 434.48 368.68 433.2 368.15C422.96 363.86 413.76 357.71 405.85 349.86C405.01 349.02 404.18 348.15 403.37 347.29C402.42 346.27 401.5 345.22 400.6 344.16C394.34 336.73 389.44 328.38 386.01 319.27C385.55 318.07 385.15 316.94 384.78 315.78C381.94 307.17 380.5 298.15 380.5 288.97C380.5 287.95 380.52 286.95 380.55 285.97C380.58 284.99 380.63 284.04 380.7 283.11C380.7 283.11 380.7 283.08 380.7 283.07C380.78 281.76 380.91 280.49 381.04 279.41C381.21 277.88 381.42 276.37 381.67 274.86C382.99 266.79 385.44 259.03 389 251.67C389.6 250.43 390.24 249.19 390.9 247.97C391.44 246.98 392.03 245.95 392.71 244.82C393.43 243.62 394.18 242.45 394.95 241.29C399.58 234.36 405.15 228.2 411.56 222.89C412.63 222.01 413.71 221.15 414.83 220.32C415.68 219.68 416.6 219.02 417.67 218.29C418.79 217.51 419.93 216.77 421.08 216.05C429.14 211.03 437.92 207.42 447.25 205.32C449.05 204.91 450.69 204.59 452.31 204.34C455.96 203.73 459.74 203.36 463.56 203.25C469.69 203.06 475.95 203.52 482.05 204.65C484.71 205.15 487.39 205.78 490.01 206.53C498.55 208.99 506.63 212.76 514.04 217.73C514.1 217.77 514.16 217.81 514.21 217.85C517.37 219.97 520.39 222.32 523.21 224.85C529.08 230.03 534.23 236.05 538.51 242.74C538.51 242.75 538.54 242.78 538.56 242.81C538.56 242.81 538.56 242.81 538.56 242.82C541.02 246.67 543.17 250.71 544.96 254.83C547.85 261.45 549.88 268.46 551.01 275.66C551.01 275.74 551.03 275.82 551.04 275.91C551.7 280.19 552.03 284.58 552.03 288.97C552.03 289.52 552.03 290.07 552 290.63C552 290.68 552 290.72 552 290.77C551.98 291.67 551.95 292.57 551.91 293.47C551.59 299.75 550.58 305.99 548.88 312.06C547.63 316.6 545.98 321.05 543.96 325.31C540.74 332.21 536.58 338.67 531.58 344.53H531.6ZM610.63 247.52L559.66 274.77L559.55 274.38C559.47 273.89 559.38 273.4 559.3 272.92C559.22 272.45 559.14 271.97 559.06 271.5C558.96 270.99 558.86 270.49 558.75 269.99C558.65 269.51 558.56 269.04 558.46 268.56C558.35 268.05 558.22 267.55 558.1 267.05C557.88 266.11 557.64 265.16 557.38 264.23C557.25 263.75 557.13 263.26 556.99 262.78C556.85 262.29 556.69 261.81 556.55 261.33C556.41 260.86 556.27 260.39 556.12 259.92C555.97 259.46 555.81 259.01 555.66 258.56C555.49 258.07 555.33 257.57 555.16 257.09C555.01 256.68 554.85 256.27 554.69 255.85C554.49 255.33 554.3 254.8 554.1 254.28C553.95 253.91 553.8 253.55 553.65 253.19C553.44 252.68 553.23 252.16 553.02 251.66V251.62L610.66 247.53L610.63 247.52ZM580.62 191.81L545.51 237.66C545.18 237.15 544.84 236.65 544.5 236.15C544.3 235.85 544.11 235.55 543.9 235.26C543.37 234.49 542.83 233.74 542.28 232.99C542.21 232.89 542.14 232.79 542.07 232.7C541.45 231.86 540.81 231.03 540.15 230.21C539.93 229.94 539.71 229.68 539.49 229.41C539.05 228.87 538.61 228.33 538.16 227.8C537.88 227.47 537.58 227.14 537.3 226.81C536.9 226.36 536.51 225.9 536.1 225.45C535.78 225.1 535.46 224.76 535.14 224.42C534.75 224 534.36 223.59 533.96 223.18C533.63 222.84 533.29 222.5 532.95 222.16C532.55 221.76 532.15 221.36 531.74 220.97C531.4 220.65 531.06 220.33 530.72 220.01C530.47 219.78 530.22 219.54 529.97 219.31L580.63 191.81H580.62ZM530.26 153.5L517.29 209.55C517.01 209.37 516.73 209.2 516.45 209.03C516.11 208.81 515.77 208.6 515.42 208.39C514.75 207.98 514.07 207.58 513.38 207.18C513.07 207 512.77 206.82 512.46 206.65C510.49 205.54 508.48 204.5 506.43 203.54C506.12 203.39 505.8 203.25 505.49 203.11C504.77 202.78 504.04 202.46 503.31 202.14C502.95 201.98 502.58 201.83 502.21 201.68C501.5 201.39 500.78 201.1 500.07 200.83C499.72 200.69 499.36 200.56 499.01 200.42C498.17 200.11 497.32 199.81 496.47 199.52C496.25 199.44 496.03 199.36 495.8 199.29C495.76 199.28 495.71 199.26 495.67 199.25L530.25 153.5H530.26ZM468.56 139.44L479.88 195.55C479.79 195.54 479.7 195.53 479.61 195.52C479.46 195.5 479.31 195.48 479.16 195.46C477.98 195.3 476.8 195.16 475.61 195.04C475.41 195.02 475.2 195 475 194.99C473.82 194.88 472.64 194.79 471.46 194.73C471.32 194.73 471.18 194.71 471.03 194.71C469.74 194.64 468.45 194.6 467.16 194.59C467.12 194.59 467.09 194.59 467.05 194.59C466.78 194.59 466.52 194.58 466.25 194.58C465.16 194.58 464.07 194.61 462.99 194.64C462.96 194.64 462.94 194.64 462.91 194.64C461.62 194.69 460.33 194.75 459.04 194.85C458.97 194.85 458.89 194.85 458.82 194.87C457.89 194.94 456.96 195.03 456.04 195.13L468.54 139.45L468.56 139.44ZM439.89 198.31C438.87 198.61 437.85 198.92 436.84 199.25C436.65 199.31 436.46 199.38 436.27 199.45C435.19 199.81 434.11 200.19 433.05 200.6C432.74 200.72 432.42 200.83 432.11 200.95C430.91 201.42 429.72 201.9 428.54 202.41C428.33 202.5 428.11 202.6 427.9 202.7C426.89 203.15 425.89 203.62 424.9 204.1C424.59 204.25 424.28 204.4 423.96 204.56C422.82 205.14 421.68 205.73 420.56 206.35C420.35 206.46 420.15 206.59 419.94 206.7C419.35 207.04 418.75 207.37 418.17 207.72L406.58 152.16L439.9 198.3L439.89 198.31ZM404.6 217.48C404.01 217.99 403.43 218.51 402.86 219.03C402.75 219.13 402.63 219.23 402.52 219.33C401.53 220.23 400.57 221.16 399.62 222.1C399.4 222.32 399.18 222.55 398.96 222.77C398.03 223.72 397.11 224.67 396.23 225.66C396.21 225.68 396.19 225.7 396.17 225.72C395.27 226.72 394.39 227.75 393.54 228.78C393.34 229.03 393.14 229.27 392.93 229.52C392.09 230.56 391.26 231.61 390.46 232.69C390.39 232.78 390.32 232.88 390.26 232.97C389.77 233.64 389.28 234.31 388.8 234.99L355.4 189.36L404.61 217.47L404.6 217.48ZM380.42 249.63C380.1 250.33 379.79 251.05 379.48 251.76C379.42 251.9 379.35 252.05 379.29 252.19C378.77 253.41 378.29 254.65 377.82 255.89C377.71 256.2 377.59 256.5 377.48 256.81C377.03 258.05 376.6 259.29 376.21 260.55C376.21 260.58 376.19 260.61 376.18 260.64C375.78 261.91 375.42 263.2 375.07 264.49C374.98 264.81 374.9 265.13 374.82 265.45C374.49 266.73 374.19 268.02 373.91 269.32C373.88 269.48 373.85 269.63 373.82 269.79C373.66 270.56 373.51 271.33 373.37 272.1L324.18 244.41L380.42 249.63ZM318.53 307.44L371.86 288.94V288.97C371.86 290.12 371.89 291.26 371.93 292.41C371.94 292.76 371.96 293.12 371.98 293.47C372.02 294.28 372.06 295.08 372.12 295.89C372.15 296.28 372.18 296.66 372.21 297.05C372.28 297.88 372.36 298.72 372.46 299.55C372.49 299.86 372.52 300.17 372.56 300.48C372.7 301.6 372.85 302.71 373.03 303.83C373.07 304.07 373.12 304.32 373.16 304.56C373.31 305.44 373.46 306.31 373.63 307.18C373.71 307.56 373.79 307.95 373.87 308.33C374.03 309.09 374.2 309.84 374.37 310.6C374.46 310.97 374.54 311.35 374.64 311.72C374.69 311.91 374.73 312.11 374.78 312.3L318.54 307.44H318.53ZM339.46 367.15L380.39 328.26C380.73 329 381.08 329.72 381.43 330.45C381.48 330.56 381.53 330.67 381.59 330.79C382.18 331.99 382.81 333.18 383.45 334.35C383.6 334.62 383.75 334.89 383.9 335.16C385.22 337.52 386.65 339.82 388.17 342.05C388.34 342.31 388.52 342.56 388.7 342.82C389.47 343.92 390.25 345.01 391.06 346.08C391.14 346.19 391.23 346.29 391.31 346.4C391.8 347.03 392.28 347.66 392.79 348.28L339.46 367.16V367.15ZM383.19 412.88L404.45 360.34C405.06 360.87 405.68 361.39 406.3 361.9C406.41 361.99 406.51 362.08 406.62 362.17C407.65 363.01 408.71 363.83 409.77 364.63C410.03 364.82 410.29 365.02 410.55 365.21C411.62 365.99 412.7 366.76 413.8 367.5C413.82 367.51 413.83 367.52 413.85 367.54C414.97 368.29 416.11 369 417.26 369.7C417.53 369.86 417.8 370.03 418.07 370.19C419.22 370.88 420.39 371.54 421.57 372.18C421.65 372.22 421.73 372.26 421.8 372.3C422.56 372.71 423.33 373.11 424.1 373.5L383.18 412.9L383.19 412.88ZM441.93 436.43L439.54 379.54C439.94 379.66 440.35 379.76 440.75 379.88C441.09 379.97 441.42 380.07 441.76 380.16C442.74 380.42 443.71 380.67 444.7 380.9C444.86 380.94 445.02 380.98 445.17 381.02C446.31 381.28 447.45 381.52 448.6 381.73C448.91 381.79 449.22 381.84 449.53 381.89C450.38 382.04 451.24 382.19 452.1 382.31C452.47 382.37 452.84 382.42 453.21 382.47C454.08 382.59 454.96 382.7 455.84 382.79C456.14 382.82 456.43 382.86 456.73 382.89C457.65 382.98 458.57 383.06 459.5 383.12L461.24 387.81L441.93 436.43ZM488.72 436.93L470.49 387.91L472.37 383.17C473.05 383.13 473.73 383.08 474.4 383.02C474.51 383.02 474.62 383.01 474.73 383C475.83 382.9 476.93 382.78 478.02 382.65C478.35 382.61 478.68 382.56 479.01 382.51C479.77 382.41 480.54 382.3 481.3 382.18C481.7 382.12 482.11 382.04 482.51 381.97C483.2 381.85 483.89 381.72 484.58 381.59C485 381.51 485.41 381.42 485.83 381.34C486.52 381.19 487.21 381.04 487.9 380.88C488.29 380.79 488.68 380.7 489.07 380.6C489.87 380.4 490.67 380.19 491.47 379.96C491.73 379.89 492 379.82 492.26 379.75C492.3 379.74 492.33 379.73 492.37 379.72L488.72 436.93ZM507.46 373.93C507.57 373.88 507.68 373.82 507.79 373.76C508.14 373.59 508.48 373.41 508.82 373.24C509.46 372.92 510.1 372.59 510.73 372.25C511.1 372.05 511.47 371.85 511.84 371.64C512.44 371.31 513.04 370.97 513.63 370.62C514 370.41 514.37 370.19 514.73 369.97C515.34 369.61 515.94 369.23 516.54 368.86C516.88 368.65 517.21 368.44 517.55 368.22C518.25 367.76 518.95 367.3 519.63 366.82C519.85 366.67 520.07 366.53 520.28 366.38C521.17 365.76 522.05 365.12 522.92 364.46C523.18 364.26 523.44 364.06 523.7 363.86C524.31 363.39 524.92 362.92 525.52 362.43C525.85 362.16 526.18 361.89 526.5 361.62C526.83 361.34 527.17 361.08 527.49 360.8L547.94 414.67L507.44 373.93H507.46ZM538.72 349.47C538.99 349.14 539.26 348.81 539.52 348.48C539.81 348.12 540.11 347.76 540.39 347.4C540.75 346.94 541.1 346.48 541.45 346.02C541.72 345.66 542 345.31 542.26 344.95C542.61 344.47 542.96 343.98 543.3 343.5C543.55 343.15 543.81 342.8 544.05 342.44C544.4 341.93 544.74 341.41 545.08 340.9C545.31 340.56 545.54 340.22 545.76 339.87C546.12 339.31 546.46 338.75 546.81 338.18C547 337.87 547.2 337.56 547.39 337.25C547.84 336.49 548.28 335.73 548.71 334.96C548.89 334.63 549.07 334.3 549.25 333.97C549.62 333.28 550 332.59 550.35 331.89C550.54 331.52 550.72 331.14 550.9 330.77C551.15 330.26 551.41 329.76 551.65 329.25L551.67 329.22L592.67 369.92L538.7 349.49L538.72 349.47ZM557.24 314.38L557.28 314.09C557.4 313.65 557.51 313.2 557.63 312.75C557.75 312.29 557.87 311.84 557.99 311.38C558.11 310.89 558.22 310.39 558.33 309.9C558.43 309.44 558.54 308.99 558.64 308.53C558.75 308.02 558.84 307.5 558.94 306.98C559.03 306.54 559.12 306.1 559.2 305.65C559.3 305.08 559.39 304.5 559.48 303.92C559.54 303.53 559.61 303.15 559.67 302.76C559.81 301.8 559.94 300.84 560.05 299.87C560.09 299.51 560.12 299.16 560.16 298.8C560.22 298.19 560.29 297.57 560.34 296.96C560.38 296.52 560.4 296.08 560.43 295.64C560.47 295.11 560.51 294.57 560.54 294.04C560.57 293.56 560.58 293.07 560.59 292.59C560.61 292.13 560.63 291.67 560.64 291.2L560.74 290.54L614.92 310.64L557.25 314.37L557.24 314.38ZM486.73 337.96C478.75 334.22 470.85 332.5 463.31 332.84C460.93 332.95 459 333.23 456.77 333.56C454.32 333.92 451.54 334.33 447.4 334.61C442.64 334.93 437.83 334.95 433.11 334.68C431.61 334.59 430.35 335.73 430.27 337.22C430.19 338.71 431.32 339.98 432.81 340.06C437.75 340.34 442.78 340.32 447.77 339.98C452.13 339.69 455.02 339.26 457.57 338.89C459.66 338.58 461.47 338.32 463.57 338.22C468.35 337.99 473.29 338.73 478.35 340.39C474.91 341.67 471.01 342.99 468.75 343.46C461.5 344.94 455.32 343.6 452.35 342.96C450.9 342.64 449.46 343.57 449.14 345.02C448.82 346.48 449.75 347.91 451.2 348.23C454.37 348.92 457.97 349.53 462.02 349.53C464.46 349.53 467.06 349.31 469.82 348.74C474.25 347.83 483.85 344.15 486.71 342.84C487.67 342.4 488.28 341.45 488.28 340.4C488.28 339.35 487.68 338.39 486.73 337.95V337.96ZM438.53 289.97C441.78 289.55 444.49 287.51 445.78 284.51C447.07 281.5 446.68 278.12 444.74 275.46C440.32 269.44 435.05 265.56 429.07 263.94C428.64 263.82 428.13 263.69 427.61 263.61C425.63 263.17 423.64 262.98 421.54 263.03C415.78 263.18 410.02 265.23 404.41 269.13C401.71 271.01 400.25 274.07 400.49 277.33C400.73 280.58 402.62 283.4 405.55 284.86C410.45 287.32 416.26 289.04 422.35 289.84C425.62 290.27 428.57 290.43 431.16 290.43C434.17 290.43 436.67 290.21 438.54 289.97H438.53ZM440.82 282.39C440.28 283.64 439.2 284.45 437.84 284.63C437.84 284.63 437.84 284.63 437.83 284.63C435.77 284.9 432.87 285.12 429.31 285.01C431.94 283.07 433.66 279.87 433.66 276.24C433.66 274.42 433.22 272.7 432.46 271.2C435.34 272.9 438 275.38 440.4 278.65C441.21 279.75 441.37 281.14 440.84 282.38L440.82 282.39ZM407.48 273.56C410.18 271.68 412.9 270.33 415.61 269.48C414.18 271.32 413.32 273.68 413.32 276.24C413.32 278.8 414.17 281.12 415.57 282.96C412.33 282.04 409.76 280.96 407.94 280.04C406.71 279.43 405.95 278.3 405.85 276.94C405.75 275.58 406.34 274.35 407.48 273.56ZM429.01 253.15C440.54 255.09 448.84 260.52 453.79 264.74C454.3 265.17 454.92 265.39 455.54 265.39C456.3 265.39 457.06 265.07 457.59 264.44C458.56 263.31 458.42 261.61 457.29 260.64C451.83 255.98 442.65 249.97 429.91 247.83C415.02 245.32 402.83 249.52 396.9 252.24C395.55 252.86 394.95 254.46 395.57 255.81C396.19 257.16 397.79 257.76 399.14 257.14C404.51 254.68 415.55 250.89 429.01 253.15ZM539.26 258.38C520.44 245.96 496.08 247.01 478.66 260.98C462.1 274.26 455.45 296.86 462.11 317.22C462.21 317.51 462.35 317.78 462.53 318.01C462.35 318.05 462.18 318.09 462.02 318.12C461.01 318.34 460.21 318.52 459.24 318.63C454.46 319.19 449.16 317.66 443.49 314.09C442.23 313.3 440.57 313.68 439.77 314.94C438.98 316.2 439.36 317.86 440.62 318.66C446.41 322.3 452 324.14 457.29 324.13C458.16 324.13 459.01 324.08 459.86 323.98C461.11 323.84 462.12 323.61 463.19 323.38C464.34 323.13 465.64 322.84 467.57 322.59C471.72 322.04 475.95 322.02 480.14 322.52C481.6 322.69 482.96 321.64 483.14 320.16C483.32 318.68 482.26 317.34 480.78 317.16C476.27 316.62 471.72 316.64 467.25 317.2C467.42 316.68 467.44 316.1 467.25 315.54C461.28 297.3 467.23 277.06 482.05 265.18C497.64 252.68 519.45 251.75 536.31 262.88C537.55 263.7 539.23 263.36 540.04 262.11C540.86 260.87 540.52 259.19 539.27 258.38H539.26ZM514.36 268.93C514.36 268.93 514.28 268.91 514.24 268.91C512.36 268.53 510.38 268.36 508.33 268.41C507.83 268.43 507.32 268.45 506.85 268.5C500.67 269.06 494.8 271.94 489.4 277.06C487.02 279.33 486.04 282.58 486.77 285.78C487.5 288.97 489.81 291.46 492.93 292.45C497.78 293.99 503.3 294.94 508.9 295.21C509.81 295.25 510.71 295.27 511.61 295.27C516.81 295.27 521.84 294.59 526.31 293.27C529.45 292.35 531.81 289.92 532.62 286.77C533.43 283.6 532.54 280.33 530.22 277.99C525.37 273.14 520.04 270.09 514.37 268.93H514.36ZM493.11 280.97C496.03 278.2 499.08 276.23 502.22 275.06C501.21 276.4 500.48 278 500.16 279.8C499.51 283.37 500.64 286.83 502.89 289.2C499.38 288.68 496.55 287.94 494.56 287.31C493.26 286.9 492.33 285.9 492.02 284.57C491.71 283.23 492.11 281.92 493.11 280.97ZM520.17 283.39C520.63 280.87 520.2 278.4 519.12 276.34C521.63 277.66 524.07 279.47 526.39 281.8C527.36 282.78 527.73 284.1 527.39 285.42C527.05 286.73 526.1 287.71 524.79 288.09C522.84 288.67 520.12 289.28 516.76 289.61C518.48 288.05 519.73 285.9 520.18 283.39H520.17ZM359.79 910.04C356.88 904.53 349.05 902.49 334.41 903.42H205.45C202.11 903.36 198.56 902.93 194.81 902.49C172.28 899.8 144.23 896.45 121.24 964.53C121.19 964.69 121.14 964.85 121.11 965.02C116.26 992.21 113.78 1020.66 113.66 1050.19C113.49 1050.78 113.47 1051.42 113.65 1052.06C113.63 1086.5 116.82 1122.41 123.22 1159.51C123.5 1161.14 124.92 1162.33 126.56 1162.33C126.6 1162.33 126.64 1162.33 126.67 1162.33L253.21 1158.16C255.08 1158.1 256.55 1156.53 256.49 1154.66C256.47 1154.02 256.27 1153.42 255.94 1152.92C255.92 1152.77 255.89 1152.62 255.85 1152.47L228.8 1049.84C222.91 1021.2 232.52 1001.39 259.05 987.49C259.08 987.47 259.11 987.46 259.14 987.44L348.17 937.37C348.56 937.15 348.9 936.86 349.18 936.5C356.91 926.61 363.54 917.14 359.79 910.04ZM126.49 973.88C132.14 985.94 141.63 1001.06 157.23 1014.38C169.06 1024.49 181.39 1031.09 192.84 1035.38C185.46 1035.67 178.1 1036.21 170.8 1037.01C153.85 1038.85 136.94 1042.09 120.47 1046.61C120.74 1021.52 122.75 997.24 126.5 973.88H126.49ZM120.88 1074.94C121.29 1075.04 121.72 1075.07 122.17 1075C136.9 1072.86 166.12 1071.53 196.34 1086.65C201.78 1089.37 207.03 1092.54 212.04 1096.08C200.99 1102.09 190.13 1108.49 179.59 1115.23C162.03 1126.46 144.98 1138.87 128.85 1152.12C124.54 1125.73 121.88 1099.97 120.88 1074.94ZM241.01 1122.79L248.58 1151.52L137.27 1155.19C152.11 1143.21 167.71 1131.96 183.73 1121.71C195.09 1114.44 206.82 1107.57 218.76 1101.18C226.11 1107.16 232.82 1113.99 238.67 1121.52C239.26 1122.28 240.11 1122.7 241 1122.79H241.01ZM233.29 1093.49L237.55 1109.66C233.71 1105.43 229.6 1101.46 225.26 1097.77C227.63 1096.55 230 1095.34 232.38 1094.15C232.73 1093.98 233.02 1093.75 233.29 1093.49ZM231.58 1086.99C230.73 1086.78 229.81 1086.84 228.96 1087.26C225.53 1088.97 222.11 1090.73 218.7 1092.52C212.6 1087.97 206.13 1083.96 199.39 1080.58C167.51 1064.63 136.72 1066.03 121.21 1068.29C121.02 1068.32 120.85 1068.37 120.68 1068.42C120.54 1063.47 120.47 1058.55 120.45 1053.66C137.15 1048.97 154.32 1045.62 171.54 1043.75C187.83 1041.98 204.4 1041.48 220.78 1042.28C221.08 1045.2 221.55 1048.2 222.19 1051.29C222.2 1051.35 222.22 1051.41 222.23 1051.47L231.59 1086.99H231.58ZM345.69 929.92C345.21 929.77 344.7 929.72 344.17 929.8C321.88 933.29 299.83 938.86 278.64 946.36C245.32 958.15 213.81 974.77 184.97 995.75C183.46 996.85 183.12 998.97 184.22 1000.49C184.88 1001.4 185.92 1001.89 186.96 1001.89C187.65 1001.89 188.35 1001.68 188.95 1001.24C217.26 980.64 248.19 964.33 280.89 952.76C297.34 946.94 314.32 942.32 331.53 938.94L255.85 981.5C231.8 994.11 220.1 1011.83 220.36 1035.35C207.16 1033.54 183.33 1027.75 161.63 1009.22C143.98 994.14 134.61 976.62 129.85 964.57C129.63 964.02 129.28 963.57 128.85 963.22C138.14 936.89 148.75 920.49 161.21 913.12C172.21 906.62 183.28 907.94 193.99 909.22C197.92 909.69 201.62 910.13 205.37 910.2H334.51C334.58 910.2 334.66 910.2 334.73 910.2C350.41 909.19 353.28 912.25 353.78 913.21C355.49 916.45 349.66 924.71 345.68 929.92H345.69ZM229.76 924.74C221.15 924.69 212.95 923.65 205.39 921.66C204.68 921.47 203.97 921.28 203.26 921.08C199.52 920.04 195.64 918.97 190 918.68C188.78 918.62 187.33 918.55 185.74 918.55C185.73 918.55 185.71 918.55 185.7 918.55C185.49 918.52 185.28 918.53 185.08 918.56C182.23 918.61 178.95 918.92 175.55 919.97C169.95 921.7 166.95 924.66 161.98 929.57C160.24 931.29 158.27 933.23 155.83 935.49C150.29 940.61 144.66 945.63 139.1 950.42C138.44 950.99 138.23 951.93 138.59 952.73C138.95 953.53 139.8 953.99 140.67 953.86C146.83 952.96 152.89 952.82 158.7 953.43C161.19 953.69 162.89 954.01 164.53 954.33C166.5 954.7 168.36 955.05 171.32 955.29C173.39 955.46 175.39 955.54 177.32 955.54C181.8 955.54 185.89 955.1 189.53 954.21C195.72 952.71 198.92 950.37 205.94 945.25C208.61 943.3 211.92 940.88 216.2 937.94C221.02 934.62 225.93 931.4 230.79 928.38C231.54 927.92 231.89 927.02 231.65 926.17C231.41 925.32 230.64 924.74 229.76 924.73V924.74ZM197.31 939.05C196.39 944.44 192.61 947.51 191.39 948.38C186.28 951.49 179.93 950.98 176.27 947.16C173.58 944.35 172.59 940.01 173.82 936.36C174.94 933.02 177.54 931.17 178.73 930.47C181.73 929.34 185.1 930.32 186.46 932.71C187.54 934.63 187.47 937.66 185.62 939.11C184.35 940.11 182.7 940.01 181.93 939.89C180.59 939.08 180.17 937.55 180.57 936.54C180.92 935.64 181.91 934.99 183.04 934.92C184.13 934.85 184.95 933.92 184.89 932.83C184.82 931.74 183.9 930.91 182.8 930.98C180.12 931.15 177.81 932.76 176.9 935.1C175.69 938.2 177.22 941.9 180.36 943.51C180.52 943.59 180.68 943.65 180.85 943.68C181.84 943.89 185.27 944.39 188.06 942.19C191.65 939.36 191.81 934.16 189.89 930.76C187.53 926.58 182.05 924.9 177.15 926.84C177.06 926.87 176.98 926.91 176.9 926.96C175.01 928.03 171.62 930.51 170.08 935.09C168.37 940.17 169.68 945.97 173.42 949.87C174.02 950.5 174.68 951.05 175.37 951.55C174.15 951.51 172.91 951.45 171.63 951.35C168.89 951.13 167.13 950.8 165.26 950.45C163.54 950.13 161.76 949.79 159.11 949.51C156.61 949.24 154.07 949.11 151.5 949.11C149.81 949.11 148.1 949.17 146.39 949.28C150.43 945.73 154.48 942.07 158.49 938.37C160.98 936.07 162.98 934.1 164.74 932.36C169.59 927.57 172.03 925.17 176.71 923.72C179.79 922.77 182.76 922.5 185.4 922.48C187.21 922.8 191.11 923.87 194.1 927.42C194.82 928.27 198.35 932.84 197.3 939.04L197.31 939.05ZM213.96 934.7C209.64 937.68 206.3 940.12 203.62 942.08C201.99 943.27 200.6 944.28 199.34 945.17C200.16 943.63 200.84 941.82 201.2 939.72C202.54 931.8 198.04 925.99 197.13 924.9C196.63 924.31 196.11 923.77 195.58 923.28C198.02 923.72 200.14 924.31 202.21 924.88C202.94 925.08 203.66 925.28 204.39 925.47C210.36 927.04 216.69 928.05 223.3 928.46C220.17 930.48 217.05 932.56 213.96 934.69V934.7Z" fill="url(#paint0_linear_2418_3210)"/>
</g>
<defs>
<linearGradient id="paint0_linear_2418_3210" x1="0" y1="620.84" x2="653.48" y2="620.84" gradientUnits="userSpaceOnUse">
<stop stop-color="#A71D35"/>
<stop offset="1" stop-color="#A62387"/>
</linearGradient>
<clipPath id="clip0_2418_3210">
<rect width="653.48" height="1241.69" fill="white"/>
</clipPath>
</defs>
</svg>
